# xmcd CD database file
#
# Track frame offsets:
#	150
#	20042
#	41899
#	62873
#	88159
#	111631
#	134700
#	152479
#	172707
#	192088
#
# Disc length: 2838 seconds
#
# Revision: 0
# Processed by: cddbd v1.5PL3 Copyright (c) Steve Scherf et al.
# Submitted via: CDex 1.50
#
DISCID=8d0b140a
DTITLE=Ken Elkinson - Midnight Conversation
DYEAR=1996
DGENRE=New Age
TTITLE0=Waves
TTITLE1=Midnight Conversation
TTITLE2=Hope
TTITLE3=Waiting
TTITLE4=Reflections (Forgotten Days)
TTITLE5=Dancing Eyes
TTITLE6=Danielle
TTITLE7=Words Never Spoken
TTITLE8=I Watch Her Sleep
TTITLE9=A New Day
EXTD=YEAR: 1996
EXTT0=
EXTT1=
EXTT2=
EXTT3=
EXTT4=
EXTT5=
EXTT6=
EXTT7=
EXTT8=
EXTT9=
PLAYORDER=
